<svg id="Layer_1" data-name="Layer 1" xmlns="http://www.w3.org/2000/svg" width="480" height="146.0834" viewBox="0 0 3897.99758 1186.31842"><defs><style>.cls-1{fill:#5a5b5d;}.cls-2{fill:#0375bc;}</style></defs><title>Sapaad Partner Logos</title><g id="HifQl2.tif"><path class="cls-1" d="M3897.99758,641.80162C3843.94014,734.32808,3771.4347,765.6577,3655.038,746.19738c-20.369-3.40554-40.39-8.83853-60.65188-12.94159-11.86088-2.40175-17.21811-7.84419-16.369-21.07368a518.12508,518.12508,0,0,0,.08592-61.915c-1.03069-18.47868,7.018-19.32319,21.33678-14.334,34.38608,11.98137,69.7733,19.23734,106.28958,20.41176,20.05622.645,40.07694.04938,59.16995-6.72448,16.87039-5.98528,30.37093-15.781,31.69839-35.69775,1.28192-19.23328-12.46634-27.75682-26.97182-33.67509-40.31488-16.4486-81.4553-30.90618-121.6176-47.70046-49.055-20.513-71.37367-60.40574-73.5177-111.4728-2.79231-66.51365,47.38659-119.39747,121.26528-128.55521,53.01538-6.57158,104.55209,2.84157,155.41449,17.45925,10.025,2.88111,11.94164,8.607,11.69528,17.81719-.532,19.899-1.28165,39.90315.171,59.71027,1.257,17.14085-6.901,19.22261-19.79523,15.1157-21.888-6.97152-44.03246-12.61449-66.81106-15.60821-25.81971-3.39334-51.63861-4.74529-76.96669,3.09573-10.07838,3.12007-20.299,7.61982-22.25038,19.23936-2.0733,12.34711,8.02,18.44726,16.75114,23.67223a165.90866,165.90866,0,0,0,28.115,12.91275c21.49072,7.87915,43.03754,15.70186,64.90146,22.45468,53.58587,16.55053,95.33987,45.43669,111.01669,102.58218Z"/><path class="cls-1" d="M1495.7546,1186.31842q.20469-60.78317.41588-121.56627c.03388-9.08732-1.10522-20.92089,12.67651-8.45491,6.82439,6.17286,8.83264-1.60628,12.52283-3.18817,26.33411-11.28857,49.04726.11788,55.29953,28.29905,10.0315,45.216-11.92388,68.97349-55.98819,59.97676-6.60337-1.3483-10.25278-.91247-9.97783,6.08572.50952,12.96828-3.7074,26.31551,2.81277,38.84782Zm14.24354-89.69814c-.01,24.88925,9.36276,37.55754,27.47265,37.132,16.71659-.39287,25.8628-13.38276,25.84844-36.7108-.01464-23.42328-8.9542-35.31122-26.6802-35.47909C1518.3817,1061.38944,1510.00789,1072.40889,1509.99814,1096.62028Z"/><path class="cls-1" d="M3205.29905,1186.31842c2.26979-5.599,2.02966-11.17671,11.4324-12.99435,22.66559-4.3813,29.98527-20.78383,21.30372-42.46256-9.03713-22.567-18.39488-45.00933-27.13578-67.68882-1.45754-3.78132-7.65222-9.69891,1.27433-12.41517,5.78734-1.761,9.64123,1.38849,11.80044,7.11607,8.24711,21.87888,16.71049,43.67657,26.7306,69.76835,8.7466-23.98287,16.06276-44.1072,23.43122-64.21249,2.5053-6.835,4.5935-16.55647,14.348-12.15734,9.66318,4.35787.49867,11.7157-1.22663,16.69793-9.15692,26.44351-19.94131,52.326-29.13157,78.759-5.068,14.57664-13.80787,26.77741-21.74412,39.58938Z"/><path class="cls-2" d="M468.345.00569Q681.43641.00664,894.52782.01506C927.42513.0198,935.40575,7.73569,935.41,39.97871q.0555,416.0438.42245,832.0868c.03,15.07551-5.47119,21.94421-17.99776,28.53589q-217.66044,114.53709-434.71392,230.21823c-9.38254,4.99452-16.63451,6.21124-26.41206.75683q-41.58537-23.19829-84.33054-44.30107c-10.172-5.01924-13.32322-11.30958-13.28176-22.29972.3842-101.7965.62626-203.59814-.17884-305.38985-.12887-16.29188,6.79255-17.57553,19.71582-17.48191q91.003.65994,182.014.15287c113.31317-.49069,195.87173-51.59676,243.45568-153.72845,47.42663-101.79417,47.96128-206.3223,1.09126-308.29687-47.967-104.361-133.00494-154.21-247.75916-154.23461-144.28066-.03089-288.56246.26705-432.84036-.359-16.60794-.07206-21.51,4.47015-21.02851,21.04468,1.17764,40.5376,1.30067,81.16261-.0505,121.68952-.57537,17.25759,5.28753,21.61082,21.35921,20.42181,17.66041-1.30659,35.57814.77561,53.22576-.6137,16.28533-1.282,19.52641,5.26476,19.45224,20.16787-.55456,111.38488-.30124,222.77377-.30232,334.16139-.00107,110.65-.19515,221.3006.22211,331.94894.056,14.84874-1.00908,20.34232-17.34172,11.44489C125.65672,956.22779,70.6359,927.53215,15.44723,899.19135,4.06116,893.34428-.01854,886.53719.00006,873.60586Q.60018,456.45637.33843,39.30568C.3451,8.549,9.08366.02672,39.94249.0196Q254.14374-.02981,468.345.00569Z"/><path class="cls-2" d="M1157.90151,491.45774c.00013-74.44914-.19893-148.899.06138-223.34717.2179-62.33412,42.90909-111.74958,104.84221-116.0073,58.20092-4.00113,116.99646-4.25917,174.864,4.3388,94.71206,14.07234,149.79748,84.22909,147.76389,184.24707-2.23658,109.999-70.58134,177.31192-189.85436,185.545a938.94721,938.94721,0,0,1-97.51074,1.39437c-19.531-.687-26.74713,3.64119-26.12636,24.96562,1.65064,56.71047.02927,113.50858.92336,170.25286.23226,14.7285-4.10106,19.23963-18.5732,18.71956-26.58209-.95516-53.25944-1.10012-79.82594.05066-14.54355.63011-16.92269-5.072-16.83258-17.96854C1158.17375,646.25486,1157.90137,568.85537,1157.90151,491.45774Zm114.60363-149.69908c0,22.10548.57714,44.2318-.22467,66.30833-.45369,12.49124,1.76257,18.80934,16.57064,18.145,27.292-1.22438,54.6793-.14445,82.01672-.615,23.35994-.40205,45.345-6.31583,64.71933-19.77,28.9306-20.09049,39.53083-56.68433,28.93819-99.50662-8.00238-32.35081-31.0959-46.29076-62.30361-50.90153-37.5467-5.54735-75.261-2.264-112.893-3.10052-14.39463-.32-16.63555,9.79553-16.7239,20.91447C1272.42329,296.07342,1272.55013,318.91655,1272.50514,341.75866Z"/><path class="cls-1" d="M3272.21012,310.596c41.25261-22.93381,84.059-24.91144,126.44445-16.40651,79.704,15.99331,131.91552,63.1023,150.52748,143.5761,13.18778,57.02174,12.63192,114.17091-3.52027,170.52624-22.93769,80.02975-85.10023,130.6754-170.2685,139.54284-38.31883,3.98958-76.89838,3.408-115.20773,1.22928-54.13008-3.07839-94.86234-48.89671-95.45858-105.96-.693-66.33126-.16749-132.67512-.16858-199.01355-.00162-100.24474.28457-200.49119-.31411-300.73239-.08835-14.79089,2.90506-21.07887,19.20739-20.11726a628.26658,628.26658,0,0,0,70.9357.01812c15.21446-.82636,18.28917,4.94084,18.11193,18.82866C3271.79627,197.24725,3272.21012,252.42109,3272.21012,310.596Zm-.00461,208.19851c0,35.341.1683,70.68325-.07046,106.02271-.12034,17.83864,8.73819,28.523,25.97608,29.46342,25.76659,1.40565,51.747,1.82176,77.11575-4.60551,30.9791-7.84851,52.41616-26.26221,61.5186-57.36567,12.649-43.223,14.51334-87.20226,4.41436-130.91591-12.008-51.97612-47.92727-78.07223-101.73647-75.18517-17.58507.94351-34.94329,5.54624-52.52,7.38553-12.60292,1.31875-15.11554,7.794-14.91769,19.1813C3272.59984,448.10565,3272.21066,483.45345,3272.20551,518.7945Z"/><path class="cls-1" d="M2986.05255,702.27068c-52.1194,45.31837-107.82193,59.58158-170.33924,41.38837-66.394-19.3213-106.81183-77.204-104.04365-147.10326,2.57848-65.09935,47.37385-118.103,114.37544-131.208,46.38111-9.07182,93.39152-15.28576,140.3396-20.98516,21.48638-2.60839,18.79191-11.56557,8.99024-23.29808-22.63876-27.09767-54.37319-34.63269-87.43588-36.1753-38.16489-1.78062-74.88715,6.6796-110.30527,20.87111-21.81567,8.74119-23.62391,7.41741-23.71552-16.12051-.05474-14.01584-.00975-28.032-.00975-42.04807,0-36.34579-.01681-36.41628,36.39947-44.9967,65.13942-15.34827,130.28263-18.724,194.83285,2.44123,69.80284,22.88751,104.40979,70.996,104.53744,144.22914.158,90.735-.322,181.47314.38485,272.20291.12006,15.41339-4.02517,20.68216-19.68221,19.70809a496.71219,496.71219,0,0,0-62.11376-.00412c-16.76578,1.06249-25.43351-3.20073-22.319-21.50371C2986.655,715.51665,2986.05255,711.14332,2986.05255,702.27068Zm-4.16421-124.72161c0-12.52852.06071-25.05742-.02683-37.5853-.0412-5.88517.79354-12.60607-8.88753-10.89384-37.77869,6.68145-76.48833,8.44218-113.40193,19.49334-27.84477,8.33613-41.87325,29.7958-39.56227,56.49566,2.30881,26.68062,19.92694,45.04561,48.49668,49.43414,22.30947,3.42682,44.16932.49386,65.52778-6.68138,47.83377-16.06924,47.84732-16.02945,47.847-65.84079Q2981.88129,579.76,2981.88834,577.54907Z"/><path class="cls-2" d="M1846.30683,703.494c-54.89232,46.58784-113.48934,59.97371-178.29595,36.995A143.12618,143.12618,0,0,1,1572.6473,593.7936c5.25207-65.96055,50.41522-116.79977,117.22357-128.99385,45.02967-8.219,90.59582-13.48838,135.86792-20.4277,20.57495-3.15371,23.225-10.08855,8.83861-25.93165-22.35975-24.62389-52.70412-31.99327-84.20222-33.547-38.92131-1.91988-76.52316,6.12912-112.24048,21.557-17.19534,7.42741-24.088,4.56822-22.74947-15.52781,1.41756-21.28313.76522-42.74627.124-64.10414-.30855-10.28275,2.16964-15.50559,13.26-18.56467,67.337-18.57342,134.92342-25.25011,203.51846-7.597,64.49263,16.59738,120.75739,61.98857,118.16334,151.509-2.60382,89.8558-.92418,179.84778-.23335,269.77329.11843,15.412-3.79806,20.63259-19.705,19.38183-19.84089-1.56014-40.05945-1.99185-59.81376.023-19.90444,2.03-27.33524-4.35294-23.81322-23.88742C1847.50636,714.015,1846.64411,710.30772,1846.30683,703.494Zm-3.59941-125.77282c0-13.25766.10868-26.51667-.05515-39.77231-.06247-5.05525.42455-10.46588-8.08693-8.93414-37.73845,6.79142-76.44118,8.49064-113.3289,19.5739-28.56743,8.58333-41.3014,28.13943-39.4311,56.262,1.78277,26.80889,18.88258,44.80587,47.93961,49.54978,21.54316,3.5172,42.68061.77291,63.401-5.80573,49.34917-15.668,49.59417-15.96257,49.59485-66.45434C1842.74076,580.66732,1842.74049,579.19426,1842.70742,577.72119Z"/><path class="cls-2" d="M2201.82033,593.05994c12.58531-34.09242,23.7624-64.12947,34.76618-94.22944,22.26923-60.91567,44.81313-121.7365,66.35263-182.90828,4.4149-12.538,10.42177-17.33995,23.75157-16.60562a532.9569,532.9569,0,0,0,59.91362.02517c17.906-1.03362,23.02659,2.36293,15.95787,21.44291-44.54522,120.23989-87.94051,240.90342-131.72309,361.42415-17.36256,47.79395-35.67965,95.26805-51.89336,143.446-23.16792,68.84265-69.7569,106.11168-142.35747,114.584-75.15994,8.77112-73.80511,10.12313-75.66661-62.83108-.619-24.26016,7.2896-30.17945,29.434-28.002,13.0371,1.2819,26.51122-1.20442,39.73112-2.55744,25.94017-2.65493,43.99383-16.584,53.88833-40.27367,8.51433-20.38474,15.54876-41.37925,23.76511-61.89423,4.23955-10.58517-1.738-18.66573-5.4796-27.16738q-87.2717-198.30255-175.15144-396.3374c-7.67594-17.19587-6.56679-23.40883,13.84121-21.85065,17.65784,1.34823,35.50105.281,53.26241.281,42.55907,0,42.519.01672,59.39531,39.93544q49.93877,118.12143,99.98107,236.19923C2195.482,580.20737,2197.74556,584.51809,2201.82033,593.05994Z"/><path class="cls-1" d="M2585.036,498.83806c0,73.01269-.83989,146.04114.53824,219.02792.387,20.50775-6.07543,24.96247-25.06329,23.47907a457.559,457.559,0,0,0-68.72906.09748c-16.8189,1.22833-21.20507-3.76106-21.12783-20.521.66752-144.5473.38457-289.099.384-433.64933-.00027-32.17212-.00162-32.17256-33.39171-32.1735-36.24689-.001-72.51709-.75334-108.73038.343-16.0389.48556-20.23915-5.17168-19.4616-20.27706,1.17351-22.80253.703-45.71937.12928-68.56765-.2675-10.6589,1.76-16.02193,14.348-15.9878q205.27575.557,410.55258.00044c12.2693-.033,14.86865,4.79841,14.609,15.67464-.58052,24.32379-.86021,48.6971.08863,72.9978.51358,13.15207-4.67373,16.18669-16.77716,16.027-42.15728-.55621-84.34491.49158-126.48294-.56678-16.156-.40577-21.54628,3.4992-21.31565,20.63849C2585.60816,349.85505,2585.036,424.35039,2585.036,498.83806Z"/><path class="cls-2" d="M364.164,433.77465c-.00071-42.76488.57964-85.54192-.32377-128.28781-.30533-14.44513,3.78756-18.84568,18.50108-18.57514,48.79426.8971,97.61562.26479,146.42631.35656,78.26436.14719,125.92068,40.00211,138.85228,117.35323,6.62364,39.61951,1.4841,78.053-18.80133,113.33387-23.58889,41.02627-59.1415,62.70926-107.1101,62.76675-52.50857.06288-105.03591-.77744-157.51549.45292-17.42286.40847-20.80589-5.407-20.39513-21.32727C364.88153,517.848,364.16466,475.80215,364.164,433.77465Z"/><path class="cls-1" d="M3320.35339,1096.7928c.00624-10.31875-.38322-20.65676.12792-30.95026.41791-8.4106-2.93757-24.07487,13.574-8.85872,3.98181,3.66939,6.3703-1.125,9.21275-2.61278,17.06227-8.9306,30.34085-2.9795,47.13128,4.68893,9.23362,4.21716,26.71489-14.86191,44.10184-8.53557,10.81583,3.93561,17.85826,11.52108,18.39677,22.65943.99491,20.591.53824,41.252.66779,61.88389.02927,4.66367-.55992,9.28842-6.5657,9.41176-7.54219.15483-7.46576-5.59261-7.48338-10.84855-.0542-16.215.14256-32.43237-.0748-48.64468-.17508-13.058-3.81216-23.38187-19.87355-23.43091-15.37-.04695-23.72528,7.80981-24.55378,22.55107-.90873,16.166-.50491,32.4082-.564,48.61759-.0225,6.24961-.19812,12.66228-8.83333,11.84965-7.13782-.67158-6.50743-6.70719-6.50689-11.88018.00163-16.21521-.097-32.43116.0309-48.64535.09025-11.44023-2.78771-20.76309-16.06384-22.2702-13.448-1.52643-23.38054,3.41081-26.88373,17.21346-4.41842,17.41105-1.1914,35.23192-2.16626,52.83894-.30272,5.4698,1.83182,13.21429-7.67065,12.45989-7.50126-.59539-5.867-7.26975-5.9467-12.11985C3320.2168,1120.38063,3320.34716,1108.58571,3320.35339,1096.7928Z"/><path class="cls-1" d="M1321.8928,1097.52741c.00379-8.834-1.31593-17.93787.42848-26.41508,1.354-6.57952-9.57307-29.84216,15.02976-13.89168,2.92931,1.8991,11.16883-4.96311,17.192-7.067,15.84445-5.53432,28.93832,11.10882,39.94766,9.17027,12.37581-2.17917,24.00266-12.90978,38.88011-9.48026,13.136,3.02827,20.68092,11.92875,21.27025,24.95849.89734,19.83718.36425,39.73792.48079,59.61138.0271,4.61678-.28756,9.41676-5.98817,10.04052-7.44272.81424-8.02352-4.74824-8.038-10.20089-.04526-16.93164.23782-33.86916-.12954-50.79311-.26574-12.23968-4.42981-21.63246-19.09058-21.91455-13.817-.26574-23.46157,5.49717-24.79661,19.56313-1.455,15.32821-.64557,30.85711-1.473,46.26374-.34677,6.45874,3.818,17.35323-7.831,16.82417-11.393-.51743-6.31068-11.315-6.65568-17.68813-.71482-13.21247-.326-26.49162-.182-39.741.139-12.78988-1.77111-24.05015-17.89593-25.11758-16.435-1.088-25.23783,7.85534-26.557,23.10789-1.32772,15.35388-.49975,30.88636-.83419,46.33588-.11884,5.49642,1.92085,13.448-7.02766,13.21173-8.76963-.23183-6.51245-8.21734-6.65013-13.65256C1321.69292,1119.61739,1321.889,1108.5699,1321.8928,1097.52741Z"/><path class="cls-1" d="M2123.79044,1057.74875c0-13.32406.0916-24.24962-.03781-35.17247-.06653-5.62281.583-10.69306,7.79491-10.51776,5.67975.138,6.83876,4.10353,6.82792,9.0761-.08266,38.18123-.01612,76.36273-.07616,114.544-.00731,4.64839-4.17287,11.29208-6.64511,8.08291-10.73682-13.93721-18.29392-.02378-27.09445,1.47678-15.59484,2.65918-29.38523-.08052-39.46023-13.40357-12.72325-16.82511-12.54912-52.236.22251-68.89742C2077.43643,1047.13372,2094.61836,1045.17707,2123.79044,1057.74875Zm.00813,40.55961c-.0416-25.84827-8.50254-37.23033-27.29067-36.71283-16.68027.45941-26.03137,13.66073-25.91226,36.58083.11844,22.79034,9.8613,35.6221,27.03713,35.60859C2115.68223,1133.77076,2123.83787,1122.71287,2123.79857,1098.30836Z"/><path class="cls-1" d="M2882.92711,1051.80259c.38539-10.28627.854-20.57037,1.11958-30.85974.12656-4.89915,1.22663-8.91419,7.11262-8.90858,5.73314.00547,7.15111,3.59076,7.13783,8.746q-.15,57.53559-.03551,115.07187c.00353,5.01438-4.79866,10.989-6.77384,8.0798-10.041-14.785-17.4314-.80546-25.81809.97853-12.07552,2.56867-23.57973,1.65282-33.74349-6.124-17.10319-13.08621-21.77908-50.07606-9.12981-71.66049,11.24484-19.18735,30.04706-22.80121,56.07816-10.78607q2.49446.4285,4.98323.8743Q2883.39231,1054.50844,2882.92711,1051.80259Zm-51.89987,46.00948c-.0168,23.67618,8.83387,35.74077,26.3688,35.94342,18.06395.20873,26.884-11.25094,27.00026-35.08054.12467-25.52125-8.65011-37.42122-27.35394-37.09658Q2831.03877,1062.02978,2831.02724,1097.81207Z"/><path class="cls-1" d="M2997.582,1083.72077c.00189-11.01932-1.9527-22.50318.54068-32.92982,2.59826-10.86584-12.42595-30.01739,13.40433-31.57617,40.61788-2.45113,61.60017,6.85431,65.20229,29.76124,3.59019,22.83073-8.45607,39.40645-32.34666,44.48055a13.54363,13.54363,0,0,1-4.3607.626c-24.1421-3.18972-30.17173,8.90506-27.55856,30.48976.79977,6.60816,5.42282,19.39446-6.68387,19.52632-14.35832.15631-7.21751-13.35034-7.87283-20.73722C2996.74316,1110.24089,2997.5798,1096.94391,2997.582,1083.72077Zm14.6754-26.48628c4.91358,8.39946-9.33416,26.6028,14.39843,26.14306,23.1499-.44854,36.09621-9.75654,35.60132-26.74189-.46479-15.94433-13.14984-23.81547-35.27366-24.51219C3005.2266,1031.43845,3015.58684,1047.36454,3012.25737,1057.23449Z"/><path class="cls-1" d="M1185.4178,1145.95829c-2.21369,0-4.52263.41165-6.62493-.0712-9.25015-2.124-25.47768,1.16916-23.68448-12.2136,1.62083-12.0981,14.12293-.42151,21.77163-1.118,6.56909-.59822,13.33861.69293,19.852-.145,9.94815-1.27953,18.76725-4.94683,20.51261-16.62605,1.66257-11.12436-3.64046-18.368-13.45325-22.69772-8.75879-3.86468-17.8195-7.07757-26.45064-11.19515-15.502-7.39553-24.59971-19.54368-21.48584-37.04443,3.186-17.90606,16.86226-24.91189,33.69118-26.40231,9.56277-.84694,19.20712-.69563,28.44941,2.65195,4.52181,1.638,11.5927,1.37566,9.82566,8.91155-1.57178,6.70381-7.16358,6.32641-12.49059,4.3965a54.42742,54.42742,0,0,0-26.17447-2.75017c-8.48412,1.15579-15.86424,4.67974-17.8836,13.92709-2.10758,9.65183,1.19289,17.55925,10.12554,22.28249a189.90975,189.90975,0,0,0,18.16491,8.02435c27.09526,10.86922,37.14465,23.69956,33.03221,42.40217C1228.63543,1136.29889,1211.62818,1146.33279,1185.4178,1145.95829Z"/><path class="cls-1" d="M1903.41134,1108.32145c.0038,7.36344.20693,14.73363-.04038,22.08883-.44921,13.36195-.94789,13.9437-12.6677,6.24811-5.96133-3.91439-7.67.958-10.52678,2.97491-9.09133,6.41794-19.24479,7.66-29.62671,5.95806-11.88934-1.94909-20.25488-8.53158-22.339-21.19858-2.14687-13.04941,1.99809-23.34351,13.91778-29.67883,10.03-5.33106,21.09639-6.16895,32.26156-6.466,6.73753-.17921,14.09136-.48967,13.64919-10.15873-.36926-8.07521-3.89129-14.86893-12.589-15.68629-7.17821-.67456-14.61632.416-21.83139,1.46327-4.73335.68712-10.48789,5.82539-13.07165-1.61235-3.10818-8.94682,5.81065-8.70985,10.58735-10.38591,32.33-11.34322,51.52722,2.20964,52.2526,36.57266C1903.52707,1095.0648,1903.40741,1101.69437,1903.41134,1108.32145Zm-41.809,25.57036c15.49429-1.1982,25.38743-8.78287,26.5871-25.808.66372-9.41946-4.2237-10.95137-12.25779-10.00046-13.752,1.62775-29.97754-.10707-32.97976,18.508C1841.01694,1128.589,1849.9149,1133.17591,1861.60233,1133.89181Z"/><path class="cls-1" d="M3537.3602,1146.11893c-23.50412.5508-39.11807-8.39486-46.39927-29.06413-7.85359-22.2933-.01328-51.41268,16.70074-61.93942,12.6948-7.99564,26.44007-8.93722,39.98289-1.80487,14.657,7.71895,19.0922,21.41677,20.71235,36.67033.87377,8.22612-3.78153,10.13617-10.60443,10.12989-12.52894-.01155-25.06844-.26676-37.58166.18583-5.4399.19677-13.07857-3.03239-15.73293,3.68776-2.50286,6.33763,1.59766,12.92512,5.37756,18.28265,9.71088,13.76415,23.90252,11.57566,38.11639,10.6074,5.13472-.35,13.9469-10.0033,15.59172,2.15161,1.09952,8.12344-9.00732,8.07629-14.95429,9.90109C3544.44138,1146.19364,3539.83026,1145.894,3537.3602,1146.11893Zm-33.59985-57.48166c13.98539,0,26.33112-.2317,38.6633.07147,10.3307.25385,10.61174-5.59227,7.97094-12.71186-3.69047-9.94986-10.97655-14.94391-21.96067-14.47626C3513.22108,1062.16829,3506.84508,1071.35869,3503.76035,1088.63727Z"/><path class="cls-1" d="M3180.84338,1105.13632c.01247,6.6083.06017,13.21693.00271,19.82469-.12738,14.665-.15014,14.66864-14.4716,10.7937-5.28243-1.42936-7.61373,3.43817-11.33347,5.31214-14.2556,7.1818-28.5673,8.23625-41.41333-2.10608-8.71028-7.01251-10.66812-17.1938-7.41941-28.03547,4.85367-16.19656,18.474-19.45322,32.63231-21.784,2.89042-.47589,5.90686-.19758,8.79294-.68921,7.75141-1.32027,19.7665,2.98544,17.7886-12.088-1.55836-11.87559-9.83447-15.4908-20.688-14.73627a92.15172,92.15172,0,0,0-13.04442,1.97564c-5.27213,1.14146-12.02186,6.63694-14.21765-2.64891-1.6459-6.96057,5.94724-7.19922,10.36349-8.83711,31.78023-11.78764,51.83347,1.66234,52.96741,35.39789C3181.0003,1093.38267,3180.83092,1099.26237,3180.84338,1105.13632Zm-28.802-6.9815c-13.40487,1.87674-30.027-.112-31.53875,19.66195-.94911,12.4122,8.23545,16.3932,19.1643,15.79646,15.45269-.84356,24.29332-8.97349,26.0601-24.677C3166.99187,1097.694,3160.69881,1096.77882,3152.04138,1098.15482Z"/><path class="cls-1" d="M1710.47455,1146.1831c-21.494.3187-37.017-8.58373-44.16106-29.39728-7.796-22.7136-.13158-51.058,16.93991-61.77068,13.57087-8.516,28.09261-8.83252,41.89195-.5475,13.24226,7.95045,17.20035,21.20345,18.36045,35.72578.827,10.35443-6.29577,9.87408-13.02612,9.92373-13.26.09781-26.53628.446-39.777-.05965-12.61282-.48163-13.1344,5.33889-9.395,14.92628,7.04934,18.07311,21.35467,19.2851,38.01773,18.54123,6.32436-.28236,17.27651-11.56377,19.16186,1.8375,1.27243,9.04429-11.66,8.50538-19.17677,10.28694C1716.49252,1146.31725,1713.447,1146.03057,1710.47455,1146.1831Zm-6.906-56.3358c7.26751-5.47893,21.85863,7.15545,22.687-9.04078.64245-12.561-8.952-19.281-22.01786-19.22686-12.92327.05363-22.84852,6.83891-22.6767,19.02657C1681.794,1097.128,1696.71762,1084.32163,1703.56858,1089.8473Z"/><path class="cls-1" d="M1943.01657,1096.45438c.00664-8.11568-1.736-16.7621.53838-24.185,1.94483-6.34735-11.99178-34.391,15.73319-14.4762,1.60484,1.15268,7.24935-3.70316,11.19918-5.31011,28.07717-11.42334,48.89305,1.04162,50.80482,31.06259,1.02974,16.17022.54353,32.441.58255,48.6669.01423,5.87619.55207,12.90168-8.36039,12.32507-7.33676-.47461-6.52438-6.653-6.53129-11.771-.02059-15.4935-.12534-30.98863.05678-46.4801.15611-13.28644-3.42812-23.48827-18.9365-24.64709-16.40451-1.2259-28.22026,5.176-29.97064,22.19529-1.65321,16.0745-.75763,32.40684-1.05426,48.62441-.09106,4.97237,1.28788,11.4869-6.13574,11.9707-9.19838.59957-7.79179-6.91889-7.87811-12.56244C1942.88431,1120.06545,1943.00993,1108.259,1943.01657,1096.45438Z"/><path class="cls-1" d="M2753.65349,1146.17513c-22.0951.34072-37.79658-8.66858-44.75906-29.5748-7.36765-22.12342-.09811-49.74143,15.65812-60.65523,12.4807-8.64487,26.19914-9.79106,39.98289-3.20289,15.10714,7.2203,19.73723,20.83658,21.40264,36.25024,1.035,9.57908-4.40378,11.21481-12.04273,11.16428-12.57419-.08322-25.188.6216-37.71554-.14246-17.41107-1.06189-16.4766,7.426-10.55185,18.69065,8.4791,16.12111,23.0526,15.62624,38.48632,14.39574,5.73693-.45745,14.63692-9.39338,17.00454.00919,2.87633,11.42462-9.93935,9.86083-16.90237,12.23211C2760.842,1146.49126,2756.89487,1145.969,2753.65349,1146.17513Zm-7.46929-55.52682c5.40765-9.05159,21.88994,8.22868,22.88241-9.95412.64746-11.855-8.7531-19.366-22.06962-19.169-14.05586.20786-24.054,8.49011-23.532,20.82551C2724.0116,1095.27272,2737.72082,1085.1354,2746.1842,1090.64831Z"/><path class="cls-1" d="M3602.72,1096.87731c.00271-8.8255-.02575-17.65112.00894-26.47648.05692-14.53781.01925-14.08029,14.88247-12.30007,3.562.42664,7.575-3.40946,11.4641-5.09369,28.84618-12.49238,50.66619.41584,51.953,31.18662.706,16.88787.32468,33.82215.36533,50.73556.01084,4.53072-.38078,9.19884-6.32721,9.66129-7.32672.56985-8.14439-4.43129-8.12189-10.08389.06423-16.17981-.08917-32.36111.06613-48.5397.14038-14.62366-5.00735-24.25868-21.44167-24.43823-15.52343-.16955-26.1696,6.42186-27.50951,22.34417-1.35293,16.076-.72525,32.31829-.94423,48.4881-.06911,5.09571.8575,11.49933-6.1207,12.1216-8.80459.7848-8.20374-6.44009-8.24981-12.30358C3602.6522,1120.41252,3602.71724,1108.64461,3602.72,1096.87731Z"/><path class="cls-1" d="M2262.12382,1090.07143c.00664-8.84076-.922-17.7994.1889-26.49918,2.81087-22.01385-1.7745-36.13162-28.51323-31.11542-4.74365.88991-11.3061,1.1108-10.86448-6.87876.32089-5.80479,5.00694-6.28615,9.7075-6.27838,24.38561.04033,48.77149-.027,73.1567.05053,5.2266.01661,11.205-.017,10.46811,7.66849-.58974,6.15213-6.26434,6.20286-10.20848,5.39678-30.901-6.31445-30.67555,12.50894-29.41477,34.22077,1.19384,20.55956.5003,41.24645.1084,61.86748-.11138,5.86308,3.61,15.4648-6.51394,15.79525-12.04056.39274-7.62092-10.29315-7.93841-16.66354C2261.67772,1115.14192,2262.11718,1102.59576,2262.12382,1090.07143Z"/><path class="cls-1" d="M2504.03876,1099.79554q-.00325,11.03005-.00352,22.06012c-.01193,15.43338-.00217,14.98066-16.17523,14.55361-3.76337-.09943-7.46251,4.448-11.492,6.1476-27.28267,11.50649-49.47912-1.58351-51.17489-30.81347-.97784-16.85767-.18212-33.81472-.30354-50.72623-.04092-5.70948.97648-10.6045,8.04926-10.39921,7.13539.20711,7.552,5.40171,7.51184,10.93839-.1122,15.44129.15068,30.88717-.11,46.32494-.23849,14.13318,3.40075,24.99565,20.04538,25.80841,16.659.81344,27.35693-7.09317,28.99931-23.54683,1.52719-15.30193.53417-30.8438.94152-46.27238.142-5.39287-2.11422-13.38533,7.10882-13.01239,8.92493.36085,6.373,8.2909,6.51123,13.64371C2504.2507,1076.25938,2504.04093,1088.03013,2504.03876,1099.79554Z"/><path class="cls-1" d="M3815.98886,1146.27254c-4.29917-.32262-8.87722-.00338-13.05878-1.13768-6.04589-1.64012-15.75948-1.93234-14.56212-10.25952,1.76379-12.26724,10.11795-2.02718,15.4508-2.28211,4.36015-.2086,8.79158,1.23927,13.16474,1.102,9.56047-.30006,20.82131.12375,22.94935-12.07047,1.95811-11.21717-8.7512-13.94978-16.46115-17.7386-6.58522-3.236-13.79053-5.25634-20.25461-8.68883-9.6274-5.11233-16.92676-12.58-15.03017-24.48923,1.82992-11.48946,10.24479-17.43786,20.9327-20.157a60.65342,60.65342,0,0,1,34.81726,1.59972c3.51919,1.17983,7.42755,2.39182,6.42532,7.16964-1.09627,5.22636-4.41327,6.57716-9.8388,5.34936-13.32113-3.01456-32.37783-10.28079-36.56859,6.28777-4.42954,17.51076,18.13171,16.72832,29.53158,22.60383,13.54255,6.97982,24.75975,15.09226,19.90635,32.02694C3848.119,1143.99042,3832.14,1145.72687,3815.98886,1146.27254Z"/><path class="cls-1" d="M2566.7325,1146.20877c-3.95119-.24467-8.55959.17076-12.7547-.951-6.599-1.76441-17.35768-1.57176-14.38135-12.12971,2.52725-8.96526,9.71712-.22184,14.82284-.5042,4.37317-.24182,8.81571,1.07878,13.22058,1.03271,8.94038-.09349,19.12283.14537,22.18128-10.41995,3.32649-11.49061-6.90936-14.82354-14.64885-18.683-7.90264-3.94081-16.43811-6.66673-24.18-10.86983-8.30321-4.50769-13.0867-11.68469-12.31321-21.73014.77539-10.0724,6.7958-16.06221,15.54348-19.63129,12.90783-5.26647,26.06363-4.32564,39.10777-.43927,4.07261,1.21333,9.309,2.31359,7.16873,8.57758-1.88846,5.52614-6.137,4.647-10.86353,3.68466-12.8089-2.60784-30.88885-8.93108-35.55525,5.73487-5.52472,17.36423,15.77493,17.243,26.57829,22.57647,13.95667,6.89045,28.0399,13.55515,23.37918,32.179C2599.41658,1143.09984,2583.60614,1145.89858,2566.7325,1146.20877Z"/><path class="cls-1" d="M3707.20048,1057.57515c16.96715-4.62948,15.27382-21.40508,26.649-30.80286,1.82287,15.01592,4.21895,28.165,22.80191,23.886,3.51539-.80939,7.30613,1.60188,6.67249,6.4257-.4629,3.52524-3.633,4.94616-6.50771,4.49357-24.383-3.83874-20.75057,12.84514-20.42941,27.28215.16342,7.34858.03957,14.70371.026,22.05587-.02358,12.944,1.99849,24.08513,19.17757,22.59714,3.74386-.32465,7.84682.03256,7.80237,5.09976-.03713,4.20108-3.29912,5.94631-7.11181,7.10115-16.30044,4.93764-32.55616-6.2569-34.03782-24.82265-1.10819-13.88358-.75506-27.93563-.21139-41.88014C3722.42769,1068.847,3721.29808,1060.47373,3707.20048,1057.57515Z"/><path class="cls-1" d="M1628.2108,1079.96559q.00751,26.45834-.00637,52.91675c-.0084,5.08882.83352,11.16753-6.62032,11.54013-7.42077.37126-7.56969-5.46089-7.57566-10.7375q-.062-55.12152-.01314-110.243c.00339-5.09078-.782-11.18306,6.80136-11.32181,9.43593-.17259,7.332,7.20625,7.36616,12.72415C1628.27625,1043.2175,1628.20565,1061.59175,1628.2108,1079.96559Z"/><path class="cls-1" d="M2624.0457,1059.09591c16.28011-7.1487,18.07453-20.66123,26.83766-33.535,3.33705,15.65731,5.94182,29.79292,24.65676,25.162,2.99232-.74042,5.72365,2.163,5.715,5.33761-.013,4.714-3.89292,6.30419-7.65791,5.62524-21.6181-3.89866-19.78927,10.30133-19.19628,23.99536.351,8.10055.18809,16.23061.04065,24.34359-.23714,13.05136,1.91882,24.0573,18.7472,23.56689,3.65361-.10646,7.90834-.59377,8.04981,4.70635.15421,5.77932-4.29186,6.70395-8.87886,7.58588-16.04947,3.0861-29.91426-6.3974-31.24849-23.02-1.11822-13.93209-.1767-28.01825-.4919-42.02842C2640.40224,1071.17279,2644.88516,1058.68338,2624.0457,1059.09591Z"/><path class="cls-1" d="M2344.03213,1096.7006c-.00027-8.7874-.02358-17.57486.00488-26.36219.04932-15.2841.0935-15.353,13.983-9.16351,4.72007,2.10344,6.10335-2.22571,8.42788-4.1927,7.11154-6.01683,15.01906-9.0243,24.34753-7.80779,3.08393.40213,5.53177,1.74644,5.89493,5.269.33254,3.22579-.9445,6.75164-3.88072,6.85992-39.20425,1.44571-33.98253,30.04495-35.35117,55.57438-.49028,9.14683,6.53345,26.16338-5.67948,26.17068-15.41122.00918-5.07808-17.29392-7.44868-26.651C2342.76078,1110.202,2344.03267,1103.29113,2344.03213,1096.7006Z"/><path class="cls-1" d="M1266.21479,1096.07664c-.00881-11.76406.03713-23.52846-.02846-35.29212-.032-5.73541,1.18449-10.70277,8.27083-10.08118,5.66646.497,6.32693,5.13273,6.32246,9.80545q-.03578,37.49791-.01856,74.99585c.00325,4.93913-1.56175,8.97525-7.117,9.0405-5.45683.06418-7.44083-3.69134-7.43-8.76476Q1266.25661,1115.92865,1266.21479,1096.07664Z"/><path class="cls-1" d="M1273.38,1034.47631c-5.32823-2.19159-8.58791-4.99371-8.217-10.00613.35828-4.83869,3.32919-8.47018,8.22393-8.21437,5.85957.30641,9.14527,4.243,8.21486,10.29978C1280.84291,1031.49478,1276.75025,1033.14726,1273.38,1034.47631Z"/></g></svg>